<svg width="50" height="50" viewBox="0 0 50 50" fill="none" xmlns="http://www.w3.org/2000/svg">
<path d="M9 4C6.25048 4 4 6.25048 4 9V41C4 43.7495 6.25048 46 9 46H25.832C25.94 46.0178 26.0502 46.0178 26.1582 46H31.832C31.94 46.0178 32.0502 46.0178 32.1582 46H41C43.7495 46 46 43.7495 46 41V9C46 6.25048 43.7495 4 41 4H9ZM9 6H41C42.6685 6 44 7.33152 44 9V41C44 42.6685 42.6685 44 41 44H33V30H36.8203L38.2207 23H33V21C33 20.4425 33.0531 20.3989 33.2402 20.2773C33.4274 20.1558 34.0058 20 35 20H38V14.3691L37.4297 14.0977C37.4297 14.0977 35.1326 13 32 13C29.75 13 27.9016 13.8965 26.7188 15.375C25.5359 16.8535 25 18.8333 25 21V23H22V30H25V44H9C7.33152 44 6 42.6685 6 41V9C6 7.33152 7.33152 6 9 6ZM32 15C34.0791 15 35.3874 15.4585 36 15.7012V18H35C33.8492 18 32.927 18.0952 32.1504 18.5996C31.3738 19.104 31 20.0615 31 21V25H35.7793L35.1797 28H31V44H27V28H24V25H27V21C27 19.1667 27.4641 17.6465 28.2812 16.625C29.0984 15.6035 30.25 15 32 15Z" fill="white"/>
</svg>
