<svg width="50" height="50" viewBox="0 0 50 50" fill="none" xmlns="http://www.w3.org/2000/svg">
<path d="M14 4C8.48867 4 4 8.48867 4 14V36C4 41.5113 8.48867 46 14 46H36C41.5113 46 46 41.5113 46 36V14C46 8.48867 41.5113 4 36 4H14ZM14 6H36C40.4307 6 44 9.56933 44 14V36C44 40.4307 40.4307 44 36 44H14C9.56933 44 6 40.4307 6 36V14C6 9.56933 9.56933 6 14 6ZM13 15C11.355 15 10 16.355 10 18V32C10 33.645 11.355 35 13 35H37C38.645 35 40 33.645 40 32V18C40 16.355 38.645 15 37 15H13ZM13.4141 17H36.584L27.6777 25.8926C26.1849 27.383 23.7968 27.3828 22.3047 25.8906L13.4141 17ZM38 18.4121V31.5879L31.4023 25L38 18.4121ZM12 18.4141L18.5859 25L12 31.5859V18.4141ZM29.9883 26.4121L36.5859 33H13.4141L20 26.4141L20.8906 27.3047C23.1465 29.5605 26.8326 29.5622 29.0898 27.3086L29.9883 26.4121Z" fill="white"/>
</svg>
