<svg width="1470" height="964" viewBox="0 0 1470 964" fill="none" xmlns="http://www.w3.org/2000/svg">
<g clip-path="url(#clip0_90_2)">
<path d="M1124.57 82.6883L1118.03 86.2716L1124.95 185.208L1131.86 283.997L1126.88 285.09C1075.87 296.547 1058.62 300.731 1037.07 306.555C980.184 322.144 928.787 339.433 867.291 363.68C844.836 372.395 825.316 380.161 823.942 380.852C821.342 382.076 820.884 377.792 815.692 303.589C811.402 242.272 809.708 224.828 808.053 223.754C806.565 222.816 803.913 223.299 798.724 225.895L791.552 229.522L797.169 309.797L802.796 390.22L793.288 394.309C775.329 401.816 718.778 428.991 688.426 444.51C626.495 476.08 561.604 512.769 495.862 553.089C474.357 566.351 468.255 569.457 467.197 567.894C466.486 566.753 464.273 555.448 462.428 542.628C460.593 529.957 458.412 519.096 457.437 518.718C456.61 518.18 453.654 518.834 451.054 520.057L446.315 522.324L447.916 551.979L449.674 581.622L385.661 621.822C307.263 670.915 258.339 700.98 256.295 701.123C255.509 701.178 251.031 677.827 245.827 646.34C236.011 587.345 235.813 586.763 227.458 589.283C215.697 592.785 73.8607 642.894 72.8224 643.86C71.9414 644.814 88.8459 750.941 94.8056 781.928L96.2774 789.416L65.1927 803.497C30.5854 819.165 -9.9752 835.547 -43.2902 847.106L-65.3464 854.751L-72.5849 850.644C-90.8229 840.609 -116.054 834.486 -135.402 835.691L-141.69 836.131L-148.121 805.177L-154.72 774.086L-140.203 758.038C-109.721 724.054 -94.072 694.83 -87.5567 659.249C-80.4523 620.799 -84.7532 572.878 -98.8497 533.977C-109.61 504.367 -135.745 474.048 -149.894 475.038C-163.257 475.973 -189.258 515.298 -197.741 547.594C-204.762 573.684 -205.135 581.896 -201.838 626.762C-199.32 662.753 -198.059 671.743 -193.161 694.321L-187.229 720.399L-202.154 735.136C-210.429 743.305 -227.714 760.44 -240.709 773.405C-294.053 826.104 -312.06 855.493 -316.578 897.036L-317.708 907.98L-348.836 910.158L-379.964 912.336L-379.623 905.913C-379.241 900.081 -379.785 899.078 -384.593 895.842C-392.062 890.709 -396.997 890.161 -401.779 894.068C-405.219 896.839 -405.734 898.512 -405.278 905.029C-404.801 911.842 -405.064 912.604 -408.208 912.824C-411.352 913.044 -411.876 912.337 -412.269 906.709C-414.187 879.308 -438.925 859.905 -469.267 862.028C-494.263 863.777 -515.226 880.276 -518.848 900.771C-520.543 910.415 -519.306 910.031 -548.742 907.03C-560.521 905.77 -571.01 904.867 -571.954 904.933C-572.74 904.988 -573.422 906.524 -573.288 908.45C-573.07 911.56 -571.624 911.905 -548.716 914.172C-535.512 915.481 -523.283 916.411 -521.868 916.312C-519.195 916.125 -516.346 918.456 -517.668 919.888C-518.255 920.524 -562.981 915.766 -570.033 914.324C-572.275 913.886 -572.852 914.67 -572.666 917.336C-572.365 921.631 -574.136 921.16 -536.694 925.684C-513.284 928.362 -503.811 930.527 -505.731 932.448C-506.024 932.766 -520.527 930.953 -538.069 928.608C-555.464 926.105 -570.292 924.165 -570.921 924.209C-571.707 924.264 -572.065 925.927 -571.93 927.852C-571.743 930.518 -570.57 931.478 -567.227 931.839C-564.849 931.97 -548.575 934.255 -531.023 936.748C-503.253 940.758 -449.736 946.985 -445.649 946.699C-444.863 946.644 -444.161 947.637 -444.078 948.822C-443.995 950.007 -445.338 951.142 -447.067 951.263C-452.412 951.637 -503.602 944.801 -538.434 939.201C-571.358 933.765 -571.515 933.776 -571.277 937.183C-571.091 939.849 -569.603 940.787 -562.551 942.228C-548.919 945.144 -485.354 954.984 -465.915 957.345C-452.051 959.054 -448.038 959.964 -448.228 961.763C-448.439 963.266 -449.97 963.969 -452.506 963.848C-463.289 963.263 -556.665 947.323 -567.95 944.094C-570.213 943.359 -570.8 943.996 -570.583 947.106C-570.344 950.513 -569.202 951.028 -559.426 953.023C-531.69 958.822 -506.405 963.452 -481.486 967.364C-466.46 969.885 -453.99 971.989 -453.665 972.115C-452.02 973.042 -457.582 981.617 -470.905 998.921C-485.246 1017.49 -487.242 1022.84 -480.262 1023.24C-477.726 1023.36 -471.192 1017.4 -454.441 999.406L-431.953 975.359L-404.078 978.618C-366.794 983.153 -353.914 984.335 -322.339 986.293C-307.731 987.355 -295.501 988.285 -295.323 988.57C-294.988 988.845 -291.01 993.775 -286.497 999.562C-264.008 1027.46 -233.85 1045.29 -198.013 1051.71C-186.811 1053.76 -180.638 1053.92 -158.786 1052.39C-144.48 1051.39 -129.733 1049.91 -125.855 1048.9L-118.706 1047.21L-110.511 1087.56C-103.036 1124.4 -102.401 1128.97 -103.363 1140.05C-105.849 1169.99 -123.85 1190.45 -153.87 1197.16C-170.054 1200.68 -186.013 1198.37 -193.774 1191.32C-196.643 1188.69 -196.643 1188.69 -189.484 1187.15C-153.49 1180.02 -140.326 1140.1 -166.152 1116.46C-177.117 1106.51 -188.621 1102.4 -202.759 1103.54C-230.103 1105.6 -248.261 1126.07 -246.375 1153.03C-245.185 1172.3 -237.368 1186.93 -221.94 1199.69C-187.085 1228.21 -132.543 1224.25 -101.852 1190.99C-78.8074 1165.86 -76.9655 1142.52 -92.4297 1070.52L-98.9768 1040.17L-89.1951 1035.47C-78.3441 1030.24 -60.8745 1018.01 -52.4524 1009.68C-45.5091 1002.79 -34.556 987.738 -31.27 980.513L-28.6768 974.676L5.68158 968.997C104.837 952.385 186.882 930.57 313.831 886.712C341.904 877.008 365.963 868.627 367.504 868.073C369.653 867.178 369.558 868.078 366.725 872.741C358.487 885.969 356.21 903.095 360.885 915.716C365.173 927.323 381.87 937.913 397.589 939.045C418.234 940.578 445.512 928.548 463.5 910.174C482.076 891.163 484.817 882.934 482.988 850.021L481.937 828.216L486.549 826.404C497.787 822.195 540.158 809.11 540.829 809.658C541.321 809.921 540.994 812.028 540.207 814.315C538.011 821.315 539.054 827.196 542.513 826.954C546.286 826.69 549.748 821.982 554.084 811.707L557.172 803.901L579.95 797.544C729.482 755.826 884.167 744.854 1032.83 765.26C1164.27 783.3 1299.26 827.286 1424.04 892.377C1435.35 898.283 1445.52 903.526 1446.67 904.189C1448.14 904.979 1448.28 900.206 1447.04 882.433L1445.44 859.624L1416.52 845.872C1328.6 804.099 1252.93 776.948 1166.49 756.355C1054.52 729.809 951.689 720.93 839.399 728.191L798.042 730.936L803.715 726.223C813.112 718.273 828.752 700.211 832.814 692.783C834.756 688.926 837.413 681.745 838.664 677.044L840.903 668.404L861.729 665.756C886.622 662.526 958.864 658.662 989.047 658.782C1131.13 659.557 1265.3 685.145 1402.14 737.485C1420.49 744.536 1435.91 750.452 1436.72 750.693C1437.37 750.945 1437.15 741.137 1436.3 728.992L1434.76 706.924L1413.36 699.045C1325.47 666.795 1236.45 645.341 1145.49 634.589L1116.17 630.985L1126.7 623.402C1140.08 613.685 1157.64 593.703 1163.29 581.848C1165.62 576.773 1168.2 568.555 1168.79 563.454L1170.06 554.435L1188.48 555.825C1255.83 561.084 1339.99 576.182 1406.22 594.766C1416.53 597.616 1425.38 599.973 1426.17 599.918C1426.8 599.874 1426.43 590.077 1425.44 578.239L1423.46 556.649L1410.57 553.085C1388.51 547.187 1341.38 537.387 1310.05 532.138C1293.6 529.568 1279.67 526.97 1279.01 526.57C1278.51 526.159 1280.77 520.047 1283.91 512.981C1294.27 489.485 1298.8 472.945 1303.34 440.777C1303.63 438.078 1304.53 437.419 1308.18 437.759C1332.2 440.097 1368.22 444.572 1389.62 447.837C1403.98 449.957 1415.96 451.798 1416.28 451.776C1416.75 451.743 1416.06 441.968 1415.06 429.834L1413.06 408.095L1375.63 403.719C1355.09 401.435 1329.95 398.878 1319.8 398.249L1301.54 396.996L1298.86 388.105C1297.41 383.146 1295.11 377.354 1293.69 375.072C1291.22 371.375 1291.26 369.735 1293.54 357.222C1295.49 346.667 1295.72 338.614 1294.82 323.496L1293.6 303.787L1312.52 303.355C1330.68 303.127 1383.19 304.067 1399.21 305.029L1406.68 305.549L1405.15 283.777C1404.32 271.928 1403.48 262.164 1403.33 262.175C1403.01 262.197 1392.25 261.908 1379.12 261.636C1366.14 261.353 1338.21 261.819 1317.1 262.701L1278.84 264.485L1270.67 251.513C1255.37 227.133 1243.97 215.429 1199.5 178.206C1145.29 132.735 1139.9 125.671 1137.71 96.6522C1136.45 78.5829 1134.92 77.0527 1124.57 82.6883ZM1177.63 213.373C1196.77 222.75 1209.48 230.493 1223.35 241.28C1234.69 249.863 1250.12 265.006 1248.94 266.131C1248.65 266.449 1234.41 268.487 1217.35 270.723C1187.91 274.42 1186.18 274.541 1183.79 272.029C1160.63 248.05 1146.62 224.026 1145.37 206.105L1144.82 198.255L1154.27 202.356C1159.33 204.681 1169.94 209.595 1177.63 213.373ZM1270.71 306.281C1273.08 308.645 1277.03 333.374 1276.45 343.237C1276.26 347.269 1275.81 349.831 1275.74 348.942C1275.52 347.916 1265.06 338.527 1252.63 327.936C1234.85 313.107 1230.43 308.653 1232.59 307.907C1234.13 307.352 1242.91 306.44 1252.02 305.654C1264.43 304.637 1269.19 304.899 1270.71 306.281ZM1186.92 332.534C1220.51 349.83 1236.2 359.449 1248.2 370.664C1257.14 378.82 1268.42 393.212 1267.1 394.792C1266.51 395.28 1255.32 395.765 1242.06 395.801C1228.78 395.688 1204.64 396.186 1188.42 396.875L1158.79 397.906L1155.96 357.472C1154.18 331.997 1153.75 316.846 1154.69 316.78C1155.48 316.725 1170.03 323.744 1186.92 332.534ZM1137.2 360.273L1139.92 399.226L1132.77 400.769C1128.71 401.499 1120.25 402.537 1113.96 402.977C1107.67 403.417 1089.35 405.741 1073.09 408.07C1002.56 418.363 936.478 433.554 861.611 456.355C844.451 461.723 829.587 466.037 828.643 466.103C827.7 466.169 826.408 456.734 825.123 438.369L823.175 410.524L855.18 398.313C909.819 377.671 954.13 362.962 1005.28 348.964C1046.98 337.563 1110.6 323.289 1127.08 321.838L1134.46 321.172L1137.2 360.273ZM806.693 445.909L808.61 473.309L790.59 479.928C703.569 511.914 619.478 549.649 529.447 597.324L500.195 612.766L496.289 608.872C485.796 598.89 477.001 588.343 478.029 587.229C478.616 586.592 488.168 580.864 498.937 574.455C585.68 522.693 665.519 480.642 744.211 444.774C795.813 421.369 800.562 419.25 802.91 418.937C804.314 418.69 805.232 425.026 806.693 445.909ZM1145.15 473.873C1147.58 508.678 1147.59 511.059 1145 510.198C1126.27 504.365 1124.68 504.179 1102.36 505.889C1082.55 507.275 1078.97 507.972 1067.28 512.511C1056.21 516.858 1050.13 518.027 1028.36 520.741C934.514 531.922 909.212 536.073 835.471 552.396C834.538 552.61 833.027 542.297 831.458 524.398L829.154 495.983L834.867 494.095C838.107 492.975 853.275 488.491 868.611 484.143C955.374 459.766 1035.22 444.951 1110.01 439.123L1142.55 436.697L1145.15 473.873ZM1202.39 433.998C1226.4 433.956 1267.38 434.809 1276.61 435.801L1282.02 436.315L1282.02 449.859C1281.89 466.091 1279.1 482.658 1272.13 507.257L1267.1 525.618L1239.41 522.792C1224.14 521.331 1201.58 519.486 1189.37 518.852L1167.17 517.726L1164.29 476.552L1161.41 435.377L1170.53 434.739C1175.4 434.398 1189.76 434.138 1202.39 433.998ZM-128.566 540.521C-121.537 543.899 -116.649 552.784 -112.303 569.745C-102.671 608.066 -119.621 652.562 -160.664 695.917C-168.457 704.202 -168.761 704.372 -169.785 701.02C-175.534 682.074 -180.255 634.926 -178.477 612.923C-175.638 574.474 -163.377 548.761 -144.192 540.721C-136.675 537.516 -134.778 537.532 -128.566 540.521ZM812.548 529.591L814.507 557.583L802.578 560.948C723.069 582.883 648.765 609.217 576.406 640.772C545.898 654.069 545.898 654.069 543.312 650.976C541.94 649.435 535.5 643.188 529.091 637.385L517.592 626.581L547.053 611.868C610.546 580.04 664.003 556.059 720.445 534.1C747.356 523.585 806.051 502.213 809.499 501.823C810.118 501.631 811.47 514.187 812.548 529.591ZM1002.77 561.378C993.146 577.381 989.568 596.235 993.455 611.145C994.761 616.262 996.402 621.654 996.987 623.251C997.981 626.158 997.195 626.213 940.127 630.206C908.371 632.428 872.558 635.38 860.819 636.946L839.207 639.649L837.186 610.767C835.186 582.182 835.175 582.034 838.739 581.041C845.689 578.768 891.243 570.521 918.589 566.226C955.955 560.635 958.774 560.289 984.064 558.221L1005.9 556.396L1002.77 561.378ZM452.148 621.486L452.899 638.996L357.896 692.377L262.883 745.61L261.337 739.318C260.617 735.797 259.573 729.916 259.314 726.214L258.691 719.56L289.485 701.331C306.324 691.371 349.062 665.461 384.512 643.781C419.963 622.1 449.52 604.256 450.149 604.212C450.778 604.168 451.642 611.996 452.148 621.486ZM229.968 622.892C230.146 623.178 233.369 642.152 237.511 665.229C242.279 692.727 244.279 707.768 243.419 709.019C241.688 711.373 147.724 763.788 124.669 775.225C115.663 779.724 107.832 782.951 107.161 782.403C106.166 781.728 88.8573 683.37 88.0576 674.198C87.8089 670.643 89.0355 670.111 116.805 660.577C132.697 655.149 163.391 644.518 184.976 636.905C219.979 624.633 229.256 621.752 229.968 622.892ZM817.792 604.534L819.087 623.047L812.592 620.525C791.627 612.169 763.319 614.001 738.976 625.081C717.704 634.904 692.43 655.277 684.843 668.756C682.334 673.545 680.803 674.248 666.872 678.348C647.668 683.859 622.017 692.054 595.18 701.373C583.607 705.309 573.889 708.668 573.418 708.701C573.103 708.723 571.911 705.234 571.139 700.972C570.22 696.869 567.271 688.592 564.656 682.821C562.187 676.892 560.252 671.818 560.703 671.489C561.144 671.011 575.412 664.953 592.626 658.093C655.768 632.54 720.133 610.921 781.696 594.409C797.828 590.154 812.262 586.465 813.834 586.355C816.182 586.042 816.621 587.797 817.792 604.534ZM493.87 646.547C504.096 650.446 514.624 656.406 519.839 660.953C523.704 664.255 523.724 664.551 520.957 665.637C519.426 666.34 507.81 671.915 495.428 677.842C479.681 685.344 472.458 688.231 471.893 686.931C471.349 685.927 470.789 677.929 470.314 668.883L469.656 652.706L477.237 648.157C481.483 645.628 485.122 643.438 485.436 643.416C485.593 643.405 489.48 644.771 493.87 646.547ZM456.127 678.36L456.909 696.314L403.492 723.121C374.188 737.822 332.042 758.631 310.056 769.546L270.038 789.164L268.713 781.518C267.794 777.414 266.908 771.523 266.376 768.435L265.678 762.977L296.891 746.207C314.106 737.114 356.255 714.073 390.477 695.157C424.866 676.379 453.469 660.685 454.097 660.641C454.716 660.449 455.6 668.573 456.127 678.36ZM544.833 688.524C549.334 696.395 556.247 713.921 555.23 715.183C554.338 715.989 483.532 744.906 478.878 746.124L475.314 747.118L474.511 728.867L473.698 710.469L505.076 696.069C522.364 688.013 537.388 681.455 538.488 681.378C539.589 681.301 542.499 684.52 544.833 688.524ZM249.32 734.652C252.556 751.542 252.975 750.768 238.947 758.001C178.274 789.483 114.971 819.512 112.971 818.014C112.468 817.603 111.675 813.045 111.165 808.02L110.208 798.859L136.933 785.678C151.59 778.401 181.743 762.301 203.95 750.031C226.146 737.613 245.018 727.363 245.962 727.297C246.895 727.083 248.401 730.549 249.32 734.652ZM673.448 711.376C674.288 723.373 679.185 732.406 688.748 740.37C692.455 743.682 695.01 746.331 694.224 746.386C684.634 747.057 613.177 764.41 584.853 772.792C576.027 775.345 568.427 777.365 568.092 777.09C567.757 776.816 568.884 770.338 570.399 762.641C572.082 755.082 573.599 745.152 573.759 740.676L574.29 732.453L582.309 729.659C590.937 726.526 665.469 703.451 671.685 701.974C672.156 701.941 672.918 706.055 673.448 711.376ZM460.169 736.122L460.951 754.076L380.457 789.029C270.367 836.768 272.674 835.863 273.577 832.971C273.956 831.605 273.982 825.204 273.515 818.539L272.666 806.394L295.321 796.027C307.713 790.249 349.146 770.532 387.34 751.934C425.544 733.484 457.5 718.3 458.129 718.256C458.758 718.212 459.632 726.188 460.169 736.122ZM556.602 755.123C555.991 759.928 554.37 768.376 552.993 773.533C550.88 781.718 549.894 783.424 546.33 784.418C544.013 785.175 528.729 790.263 512.365 795.724C495.854 801.345 481.797 805.9 481.011 805.955C478.653 806.12 476.836 771.122 479.07 769.18C479.961 768.374 497.773 761.025 518.551 753.171L556.238 738.628L556.979 742.446C557.439 744.497 557.204 750.169 556.602 755.123ZM-172.288 791.687C-172.257 792.131 -170.044 803.436 -167.225 816.634C-164.553 829.991 -162.518 841.011 -162.822 841.181C-162.969 841.34 -167.854 843.766 -173.516 846.395C-193.236 855.811 -209.859 871.114 -217.135 886.804C-221.397 895.883 -220.17 895.351 -247.212 899.476C-256.436 900.865 -259.433 900.926 -259.537 899.445C-259.796 895.742 -247.851 872.284 -239.804 860.856C-228.325 844.276 -216.168 830.626 -193.965 809.277C-176.208 792.11 -172.464 789.169 -172.288 791.687ZM257.562 782.447C259.021 792.019 259.051 794.696 257.342 795.113C256.242 795.19 250.446 795.893 244.325 796.47C231.297 797.679 223.056 801.828 213.019 811.907C205.792 819.259 192.498 825.696 142.838 845.245L118.391 854.844L116.617 845.293C115.615 840.006 115.43 835.107 116.175 834.46C116.762 833.823 126.408 829.427 137.3 824.796C160.459 814.84 218.1 787.44 238.964 776.306C246.89 772.18 253.936 769.008 254.449 769.567C255.109 769.967 256.466 775.826 257.562 782.447ZM464.221 794.033L465.003 811.987L438.826 821.707C424.496 826.877 384.608 841.574 350.265 854.247C197.336 910.639 120.729 933.413 13.9518 953.982C-27.8283 961.966 -24.5062 962.031 -22.6437 952.524C-21.6762 948.289 -20.2267 944.169 -19.3249 943.51C-18.423 942.852 -13.2973 941.6 -7.99356 940.634C-2.8367 939.827 14.8884 935.759 31.0518 931.949C55.7581 926.053 61.5335 925.053 66.9719 926.012C76.2559 927.744 86.4971 925.092 96.6053 918.283C103.243 913.8 112.321 910.337 135.509 903.059C152.208 897.872 178.614 889.178 194.339 883.612C210.064 878.047 227.391 872.816 232.863 871.987C240.21 870.878 244.676 869.226 250.401 865.253C254.774 862.268 279.285 851.325 305.85 840.388C331.954 829.631 377.243 810.834 406.409 798.673C435.564 786.364 460.294 776.298 461.395 776.221C462.956 775.963 463.561 780.088 464.221 794.033ZM100.147 813.107C101.118 817.951 101.439 822.542 101.029 823.464C98.9096 827.035 -30.1592 874.465 -40.0635 875.158C-41.4784 875.257 -45.1236 872.833 -48.1813 869.773L-53.459 864.338L-44.6742 861.193C-2.7005 846.945 44.2021 828.631 77.2683 813.517C87.8361 808.759 96.8835 804.852 97.502 804.66C97.9633 804.479 99.1863 808.412 100.147 813.107ZM-464.95 876.312C-461.859 877.584 -456.842 881.549 -453.911 885.065C-448.571 891.389 -440.652 909.736 -442.414 911.646C-442.844 912.271 -448.986 912.552 -456.102 912.455C-468.594 912.287 -468.919 912.161 -471.294 907.564C-476.924 897.093 -491.101 893.174 -501.083 899.528C-506.378 902.875 -508.169 902.107 -507.117 896.825C-505.275 887.021 -489.504 875.351 -476.927 874.471C-473.469 874.229 -468.041 875.04 -464.95 876.312ZM105.331 844.297C107.651 852.618 107.504 852.778 100.903 851.007C84.1695 846.671 65.3301 855.133 53.1278 872.656C47.8085 880.173 49.0351 879.64 10.019 891.003C-30.2339 902.749 -26.3037 902.474 -30.6571 894.444C-32.813 890.725 -34.2987 887.555 -34.1519 887.396C-33.8478 887.226 -21.7926 883.405 -7.4104 878.976C18.2513 870.929 75.2897 850.715 92.0215 843.74C103.386 839.075 103.857 839.042 105.331 844.297ZM202.951 859.941C203.883 861.959 203.159 862.903 199.95 864.467C193.052 867.48 121.789 892.112 119.273 892.288C118.016 892.376 117.482 891.52 118.144 889.688C118.679 888.311 119.595 883.336 120.06 878.689L121.209 870.274L159.798 855.072L198.387 839.87L199.952 848.69C200.923 853.534 202.229 858.652 202.951 859.941ZM-106.331 889.916L-99.6984 892.131L-114.164 895.375C-121.931 897.258 -128.503 898.165 -128.534 897.72C-128.575 897.128 -129.233 894.495 -130.049 891.873L-131.334 887.051L-122.143 887.45C-117.081 887.543 -110.04 888.836 -106.331 889.916ZM-150.165 897.894L-149.006 903.171L-161.615 905.84C-168.47 907.212 -174.413 908.075 -174.748 907.8C-175.586 907.115 -164.911 899.373 -157.918 895.46C-154.573 893.589 -151.827 892.206 -151.659 892.343C-151.491 892.48 -150.844 894.965 -150.165 897.894ZM-447.137 920.906C-443.637 921.257 -441.207 922.128 -441.113 923.461C-440.937 925.979 -441.409 926.012 -457.914 924.935C-467.587 924.421 -471.118 923.626 -471.232 921.997C-471.377 919.923 -466.032 919.549 -447.137 920.906ZM-225.097 910.728C-225.382 913.427 -225.835 915.989 -226.139 916.159C-226.276 916.466 -235.038 917.675 -245.383 918.845L-264.186 921.054L-263.229 916.67C-262.429 912.298 -262.272 912.287 -244.464 909.404C-234.622 907.822 -226.194 906.34 -225.576 906.148C-224.947 906.104 -224.645 908.166 -225.097 910.728ZM-346.894 919.846L-316.637 918.77L-316.378 922.473L-316.129 926.028L-336.943 926.591C-365.806 927.271 -401.03 927.354 -407.223 926.895C-411.038 926.566 -412.201 925.755 -411.539 923.922C-410.888 921.942 -408.393 921.47 -394.025 921.357C-384.875 921.164 -363.59 920.567 -346.894 919.846ZM-77.3971 906.049C-74.329 909.258 -72.0884 911.929 -72.3821 912.247C-73.4204 913.213 -122.192 922.876 -123.02 922.339C-123.365 921.916 -124.034 919.135 -124.576 915.899L-125.284 910.293L-105.861 905.659C-95.1377 903.123 -85.6515 900.971 -84.5614 900.746C-83.6181 900.68 -80.2977 902.978 -77.3971 906.049ZM-457.197 932.922C-448.321 933.342 -442.872 934.449 -442.318 935.601C-441.763 936.753 -441.68 937.938 -441.974 938.256C-442.551 939.041 -462.567 937.465 -479.774 935.394C-486.784 934.545 -487.916 934.178 -485.473 932.965C-483.795 932.104 -479.875 931.68 -476.868 931.768C-473.85 932.003 -464.973 932.424 -457.197 932.922ZM46.0287 904.408C46.6747 909.126 47.1221 913.262 46.9753 913.421C46.5554 914.194 -8.73795 927.737 -15.771 928.825L-21.2423 929.654L-22.2528 921.986C-23.2219 914.909 -22.9592 914.147 -19.7096 913.175C-17.6866 912.736 -4.2062 908.965 10.2071 904.98C24.7777 900.984 36.8536 897.46 37.1473 897.141C37.441 896.823 39.3068 896.395 41.3505 896.252C44.4947 896.032 45.0285 896.888 46.0287 904.408ZM-146.083 917.85C-145.979 919.331 -145.321 921.964 -144.735 923.561C-143.742 926.468 -144.35 926.808 -156.708 928.566C-163.898 929.664 -174.536 931.153 -180.312 932.152L-191.097 933.8L-188.221 927.496L-185.491 921.352L-172.546 918.958C-151.017 915.07 -146.29 914.888 -146.083 917.85ZM-386.543 935.717C-373.097 935.967 -351.612 935.952 -338.837 935.654C-316.283 935.117 -315.812 935.084 -314.787 938.436C-313.92 941.798 -314.224 941.968 -322.713 942.562C-332.146 943.222 -369.78 942.73 -397.499 941.693C-413.344 941.016 -417.054 939.936 -413.813 936.583C-412.648 935.162 -415.478 935.36 -386.543 935.717ZM-225.345 932.029L-224.353 937.168L-244.476 938.576C-262.555 939.841 -264.62 939.688 -264.786 937.318C-265.148 932.135 -262.852 931.081 -247.959 929.444C-239.794 928.723 -231.493 927.696 -229.774 927.427C-226.965 926.933 -226.117 927.766 -225.345 932.029ZM-61.4761 930.386C-60.2945 933.726 -59.6156 936.655 -60.0561 937.133C-60.78 938.076 -86.2084 942.683 -107.15 945.935L-118.25 947.604L-119.629 941.45C-120.349 937.928 -120.86 935.136 -120.713 934.977C-120.577 934.67 -108.418 932.331 -93.9219 929.53C-79.4257 926.73 -67.12 924.232 -66.8367 923.766C-65.515 922.334 -63.4316 925.016 -61.4761 930.386ZM-392.622 950.431C-372.962 951.436 -318.844 952.71 -313.027 952.303C-312.241 952.248 -311.016 953.948 -310.399 955.989L-309.334 959.933L-322.612 959.82C-344.253 959.846 -410.873 956.024 -417.935 954.434C-419.863 953.974 -419.398 949.327 -417.354 949.184C-416.883 949.151 -405.627 949.703 -392.622 950.431ZM-140.653 943.516C-139.933 947.038 -139.411 949.978 -139.558 950.137C-139.705 950.296 -151.297 951.703 -165.405 953.285L-190.8 956.104L-191.236 949.883L-191.66 943.811L-179.408 942.805C-169.043 941.931 -146.047 938.685 -142.954 937.724C-142.336 937.532 -141.363 940.143 -140.653 943.516ZM-219.691 951.874C-218.561 954.474 -217.609 956.789 -217.599 956.937C-217.578 957.233 -226.833 958.179 -237.995 958.96L-258.432 960.39L-260.273 956.649C-261.362 954.641 -262.157 952.316 -262.208 951.575C-262.26 950.835 -253.498 949.626 -242.021 948.823L-221.741 947.404L-219.691 951.874ZM-396.354 964.831C-375.06 966.615 -338.894 968.699 -314.508 969.523C-306.91 969.735 -305.286 970.366 -303.486 973.514C-302.398 975.522 -301.634 977.403 -301.917 977.869C-303.69 979.63 -423.847 969.285 -426.528 967.091C-428.036 965.857 -425.54 963.152 -422.71 962.954C-421.295 962.855 -409.39 963.659 -396.354 964.831ZM-57.3994 957.039C-57.7795 960.638 -58.4844 964.111 -59.0718 964.747C-60.0894 966.009 -92.613 970.815 -107.685 972.167C-113.344 972.563 -113.512 972.426 -114.576 966.249C-115.286 962.876 -115.65 959.925 -115.357 959.606C-115.084 958.992 -72.8958 952.319 -63.4839 951.363L-56.8914 950.753L-57.3994 957.039ZM-229.251 968.766L-211.015 967.49L-206.345 973.266L-201.686 978.893L-214.797 978.917C-250.807 979.056 -250.807 979.056 -252.576 976.352C-255.747 971.662 -255.169 968.645 -251.009 969.396C-249.091 969.708 -239.313 969.47 -229.251 968.766ZM-136.561 963.62C-136.509 964.361 -135.851 966.994 -135.203 969.479L-133.781 973.993L-156.577 975.588L-179.215 977.172L-182.251 972.175C-183.873 969.312 -185.317 966.734 -185.338 966.438C-185.369 965.994 -174.385 964.927 -161.022 963.992C-147.659 963.057 -136.613 962.88 -136.561 963.62ZM-212.185 989.153C-190.889 988.705 -190.889 988.705 -176.116 994.369C-160.369 1000.41 -146.485 1002.42 -146.765 998.417C-146.848 997.232 -151.142 994.556 -156.182 992.527L-165.6 988.87L-149.282 987.282C-140.331 986.507 -132.785 985.979 -132.293 986.242C-130.942 987.487 -123.812 1023.9 -124.84 1025.01C-127.347 1027.57 -160.057 1029.71 -172.496 1028.05C-198.002 1024.77 -224.192 1011.72 -238.443 995.455L-244.285 988.72L-238.878 989.235C-235.86 989.47 -223.85 989.523 -212.185 989.153ZM-64.2721 980.738C-64.127 982.812 -71.891 993.774 -77.345 999.364C-82.8095 1004.81 -99.3876 1016.24 -102.217 1016.43C-103.318 1016.51 -105.116 1011.13 -106.745 1003.65C-110.848 983.402 -111.237 984.62 -100.755 983.142C-81.9626 980.786 -64.355 979.554 -64.2721 980.738Z" fill="#1E1E1E"/>
</g>
<defs>
<clipPath id="clip0_90_2">
<rect width="2017.22" height="1201.13" fill="white" transform="translate(-627 140.801) rotate(-4.00248)"/>
</clipPath>
</defs>
</svg>
