<svg width="3077" height="1651" viewBox="0 0 3077 1651" fill="none" xmlns="http://www.w3.org/2000/svg">
<g clip-path="url(#clip0_90_2)">
<path d="M2643.44 86.1346L2633.18 90.64L2641.57 210.537L2649.95 330.255L2642.18 331.7C2562.59 346.828 2535.69 352.318 2502.04 359.903C2413.23 380.186 2332.91 402.399 2236.72 433.298C2201.61 444.413 2171.07 454.305 2168.92 455.177C2164.85 456.725 2164.24 451.537 2157.95 361.614C2152.75 287.306 2150.53 266.178 2147.99 264.913C2145.7 263.811 2141.56 264.461 2133.43 267.735L2122.2 272.309L2129 369.591L2135.82 467.052L2120.94 472.242C2092.84 481.783 2004.27 516.118 1956.72 535.678C1859.68 575.475 1757.92 621.554 1654.75 672.061C1621 688.671 1611.43 692.587 1609.83 690.715C1608.75 689.348 1605.58 675.681 1603.02 660.168C1600.47 644.835 1597.34 631.707 1595.83 631.272C1594.56 630.639 1589.95 631.503 1585.88 633.05L1578.46 635.915L1580.24 671.863L1582.26 707.795L1481.78 758.113C1358.72 819.571 1281.94 857.228 1278.76 857.451C1277.53 857.537 1271.13 829.306 1263.8 791.221C1249.95 719.864 1249.66 719.163 1236.61 722.421C1218.24 726.952 996.537 791.164 994.9 792.36C993.507 793.54 1017.24 921.923 1025.76 959.384L1027.87 968.435L979.21 986.269C925.032 1006.11 861.583 1026.97 809.513 1041.79L775.04 1051.6L763.886 1046.79C735.773 1035.05 696.694 1028.22 666.588 1030.15L656.801 1030.83L647.545 993.423L638.032 955.851L660.986 936.028C709.189 894.057 734.218 858.217 745.201 814.882C757.167 768.052 751.63 710.001 730.649 663.131C714.63 627.457 674.728 591.29 652.707 592.831C631.911 594.286 590.546 642.632 576.583 682.027C565.042 713.858 564.265 723.832 568.315 778.2C571.367 821.815 573.111 832.695 580.183 859.976L588.78 891.48L565.224 909.722C552.163 919.834 524.881 941.042 504.367 957.087C420.174 1022.32 391.475 1058.42 383.454 1108.94L381.435 1122.25L332.99 1125.64L284.546 1129.03L285.229 1121.22C285.963 1114.14 285.141 1112.93 277.744 1109.12C266.257 1103.07 258.597 1102.52 251.069 1107.38C245.655 1110.82 244.815 1112.87 245.367 1120.76C245.945 1129.02 245.518 1129.95 240.625 1130.3C235.732 1130.64 234.935 1129.79 234.458 1122.97C232.134 1089.77 194.14 1066.81 146.919 1070.12C108.017 1072.84 75.0316 1093.36 68.9102 1118.32C66.044 1130.07 67.9762 1129.57 22.2856 1126.63C4.0043 1125.39 -12.2819 1124.54 -13.75 1124.65C-14.9733 1124.73 -16.071 1126.61 -15.9078 1128.95C-15.6441 1132.71 -13.4044 1133.1 22.1544 1135.3C42.6502 1136.57 61.6404 1137.41 63.8424 1137.25C68.0018 1136.96 72.3746 1139.72 70.2856 1141.49C69.3572 1142.28 -0.0601852 1137.58 -10.9889 1136C-14.4644 1135.52 -15.3803 1136.48 -15.1543 1139.71C-14.7901 1144.92 -17.5316 1144.39 40.5682 1148.98C76.8986 1151.67 91.5727 1154.07 88.5427 1156.45C88.0785 1156.84 65.5751 1154.99 38.3601 1152.56C11.3773 1149.94 -11.628 1147.95 -12.6067 1148.01C-13.83 1148.1 -14.4259 1150.13 -14.2626 1152.46C-14.0365 1155.69 -12.2359 1156.83 -7.04768 1157.18C-3.35254 1157.29 21.8925 1159.67 49.1199 1162.27C92.1946 1166.47 175.245 1172.75 181.606 1172.3C182.829 1172.22 183.896 1173.4 183.996 1174.84C184.097 1176.28 181.983 1177.69 179.291 1177.87C170.973 1178.46 91.555 1171.39 37.5391 1165.43C-13.5156 1159.62 -13.7602 1159.64 -13.4714 1163.77C-13.2453 1167 -10.9554 1168.1 -0.0267457 1169.68C21.0966 1172.89 119.68 1183.31 149.844 1185.71C171.356 1187.45 177.573 1188.46 177.234 1190.64C176.871 1192.47 174.474 1193.36 170.534 1193.28C153.784 1192.83 9.00131 1175.72 -8.46455 1172.07C-11.9653 1171.24 -12.8937 1172.02 -12.63 1175.79C-12.3411 1179.92 -10.5782 1180.52 4.57262 1182.7C47.5533 1189.08 86.7509 1194.09 125.396 1198.24C148.697 1200.94 168.032 1203.19 168.534 1203.34C171.068 1204.42 162.217 1214.96 141.089 1236.28C118.349 1259.15 115.118 1265.69 125.959 1266.02C129.899 1266.1 140.2 1258.71 166.673 1236.47L202.211 1206.75L245.467 1210.04C303.322 1214.65 323.316 1215.77 372.357 1217.39C395.042 1218.33 414.032 1219.17 414.302 1219.51C414.816 1219.83 420.883 1225.72 427.76 1232.64C462.053 1265.95 508.51 1286.87 564.07 1293.8C581.435 1296.01 591.027 1296.06 625.036 1293.68C647.301 1292.13 670.262 1289.98 676.316 1288.65L687.47 1286.43L699.243 1335.21C709.98 1379.73 710.858 1385.26 709.096 1398.73C704.513 1435.12 676.038 1460.38 629.207 1469.25C603.962 1473.9 579.207 1471.48 567.311 1463.12C562.913 1460 562.913 1460 574.08 1457.95C630.209 1448.44 651.63 1399.68 612.049 1371.61C595.241 1359.8 577.455 1355.09 555.447 1356.81C512.888 1359.97 484.169 1385.25 486.455 1417.91C487.843 1441.26 499.644 1458.83 523.322 1473.95C576.825 1507.72 661.712 1501.6 710.223 1460.51C746.652 1429.47 750.075 1401.09 727.761 1314.09L718.31 1277.42L733.63 1271.48C750.625 1264.88 778.077 1249.61 791.37 1239.3C802.329 1230.78 819.719 1212.24 825 1203.4L829.172 1196.25L882.723 1188.54C1037.27 1166 1165.34 1137.56 1363.75 1081.29C1407.63 1068.84 1445.23 1058.09 1447.64 1057.38C1451.01 1056.25 1450.84 1057.34 1446.32 1063.07C1433.2 1079.32 1429.25 1100.15 1436.21 1115.36C1442.6 1129.34 1468.3 1141.79 1492.71 1142.79C1524.77 1144.15 1567.47 1128.9 1595.87 1106.17C1625.21 1082.66 1629.67 1072.6 1627.61 1032.71L1626.5 1006.27L1633.71 1003.96C1651.29 998.584 1717.47 981.688 1718.5 982.338C1719.26 982.645 1718.7 985.209 1717.42 988.004C1713.84 996.552 1715.32 1003.66 1720.7 1003.29C1726.58 1002.88 1732.07 997.08 1739.06 984.506L1744.05 974.959L1779.61 966.699C2013.08 912.486 2253.82 895.461 2484.45 916.659C2688.35 935.399 2897.16 985.54 3089.58 1061.54C3107.03 1068.43 3122.7 1074.55 3124.48 1075.33C3126.75 1076.25 3127.09 1070.46 3125.58 1048.92L3123.64 1021.28L3079.01 1005.28C2943.33 956.697 2826.33 925.564 2692.45 902.646C2519.02 873.117 2359.36 864.809 2184.62 876.314L2120.26 880.637L2129.19 874.782C2143.99 864.908 2168.74 842.615 2175.23 833.503C2178.34 828.776 2182.65 819.998 2184.7 814.263L2188.39 803.724L2220.83 800.011C2259.61 795.494 2372.01 789.072 2418.93 788.495C2639.79 786.027 2847.78 813.861 3059.26 874.095C3087.61 882.212 3111.44 889.022 3112.69 889.295C3113.69 889.585 3113.6 877.688 3112.57 862.97L3110.7 836.227L3077.61 827.179C2941.76 790.15 2803.88 766.249 2662.73 755.384L2617.23 751.713L2633.78 742.258C2654.81 730.145 2682.59 705.475 2691.66 690.953C2695.4 684.739 2699.62 674.704 2700.66 668.499L2702.84 657.524L2731.45 658.769C2836.03 663.536 2966.49 679.839 3069.01 700.803C3084.97 704.015 3098.68 706.663 3099.9 706.577C3100.88 706.509 3100.54 694.629 3099.29 680.287L3096.73 654.133L3076.78 650.118C3042.63 643.489 2969.59 632.727 2921.01 627.108C2895.49 624.385 2873.91 621.566 2872.89 621.096C2872.12 620.609 2875.77 613.139 2880.82 604.489C2897.5 575.726 2904.94 555.546 2912.77 516.399C2913.28 513.117 2914.7 512.297 2920.37 512.621C2957.66 514.882 3013.54 519.449 3046.73 522.898C3069.01 525.127 3087.59 527.074 3088.08 527.039C3088.81 526.988 3087.98 515.142 3086.71 500.441L3084.13 474.108L3026.04 469.695C2994.17 467.416 2955.14 464.916 2939.37 464.396L2911.02 463.314L2907.08 452.588C2904.94 446.605 2901.5 439.631 2899.34 436.896C2895.59 432.469 2895.69 430.478 2899.54 415.238C2902.82 402.383 2903.37 392.605 2902.33 374.28L2900.91 350.391L2930.34 349.414C2958.57 348.701 3040.19 348.582 3065.07 349.366L3076.66 349.817L3074.82 323.433C3073.81 309.074 3072.74 297.245 3072.49 297.262C3072 297.296 3055.28 297.204 3034.87 297.189C3014.71 297.157 2971.28 298.392 2938.44 299.968L2878.91 303.051L2866.51 287.506C2843.32 258.286 2825.88 244.356 2757.64 200.252C2674.45 146.371 2666.24 137.927 2663.53 102.765C2662 80.8677 2659.66 79.0474 2643.44 86.1346ZM2722.79 243.452C2752.32 254.372 2771.89 263.464 2793.19 276.223C2810.62 286.366 2834.25 304.372 2832.39 305.766C2831.92 306.159 2809.74 308.973 2783.16 312.096C2737.3 317.288 2734.61 317.477 2730.96 314.486C2695.53 285.942 2674.33 257.124 2672.81 235.406L2672.15 225.893L2686.74 230.644C2694.55 233.344 2710.93 239.051 2722.79 243.452ZM2865.26 353.968C2868.9 356.779 2874.44 386.693 2873.31 398.676C2872.91 403.574 2872.15 406.694 2872.07 405.617C2871.74 404.377 2855.72 393.234 2836.64 380.68C2809.35 363.11 2802.59 357.812 2805.96 356.854C2808.37 356.144 2822.05 354.827 2836.23 353.654C2855.54 352.122 2862.93 352.327 2865.26 353.968ZM2734.37 387.836C2786.19 408.019 2810.33 419.315 2828.72 432.638C2842.43 442.321 2859.62 459.516 2857.54 461.465C2856.6 462.072 2839.2 462.928 2818.57 463.289C2797.93 463.471 2760.4 464.654 2735.16 465.879L2689.08 467.841L2685.65 418.841C2683.49 387.97 2683.19 369.593 2684.65 369.491C2685.88 369.405 2708.33 377.574 2734.37 387.836ZM2656.41 422.69L2659.72 469.895L2648.55 471.939C2642.23 472.923 2629.05 474.386 2619.26 475.071C2609.48 475.755 2580.94 479.015 2555.59 482.231C2445.7 496.414 2342.61 516.433 2225.67 545.898C2198.86 552.824 2175.65 558.416 2174.18 558.519C2172.72 558.622 2170.93 547.203 2169.38 524.947L2167.02 491.203L2217.07 475.617C2302.5 449.257 2371.74 430.344 2451.61 412.13C2516.71 397.295 2615.95 378.447 2641.61 376.29L2653.1 375.306L2656.41 422.69ZM2140.54 534.539L2142.87 567.744L2114.69 576.209C1978.64 617.112 1847.01 664.921 1705.9 724.936L1660.05 744.377L1654.07 739.745C1638 727.883 1624.58 715.295 1626.2 713.918C1627.13 713.132 1642.12 705.951 1659.01 697.915C1795.11 633.02 1920.24 580.075 2043.44 534.661C2124.22 505.02 2131.65 502.335 2135.31 501.899C2137.5 501.565 2138.77 509.232 2140.54 534.539ZM2666.05 560.357C2669 602.536 2668.95 605.425 2664.95 604.443C2635.97 597.813 2633.49 597.625 2598.76 600.236C2567.94 602.393 2562.35 603.325 2544.07 609.113C2526.75 614.654 2517.27 616.219 2483.36 620.034C2337.2 635.853 2297.76 641.498 2182.73 663.074C2181.27 663.356 2179.17 650.878 2177.16 629.194L2174.26 594.767L2183.19 592.339C2188.25 590.902 2211.94 585.096 2235.89 579.453C2371.36 547.789 2495.85 527.896 2612.26 519.029L2662.89 515.306L2666.05 560.357ZM2755.99 510.595C2793.32 509.967 2857 510.02 2871.33 511.002L2879.73 511.497L2879.4 527.933C2878.81 547.634 2874.08 567.805 2862.66 597.824L2854.39 620.226L2811.41 617.462C2787.71 616.054 2752.68 614.357 2733.72 613.88L2699.24 613.046L2695.74 563.149L2692.25 513.251L2706.44 512.258C2714.03 511.728 2736.36 511.067 2755.99 510.595ZM684.294 671.785C695.141 675.716 702.526 686.382 708.876 706.86C722.932 753.132 695.513 807.537 630.667 861.134C618.353 871.374 617.876 871.588 616.364 867.545C607.88 844.691 601.672 787.589 604.964 760.845C610.3 714.118 629.978 682.62 659.996 672.403C671.759 668.334 674.707 668.308 684.294 671.785ZM2147.64 635.949L2150.01 669.872L2131.39 674.242C2007.25 702.768 1891.11 736.506 1777.86 776.536C1730.11 793.404 1730.11 793.404 1726.17 789.712C1724.07 787.875 1714.21 780.448 1704.38 773.56L1686.77 760.724L1732.92 742.164C1832.39 702.017 1916.07 671.632 2004.35 643.631C2046.43 630.225 2138.2 602.882 2143.57 602.326C2144.53 602.078 2146.33 617.283 2147.64 635.949ZM2442.6 669.962C2427.26 689.613 2421.24 712.58 2426.93 730.579C2428.83 736.758 2431.26 743.262 2432.13 745.185C2433.6 748.69 2432.38 748.775 2343.56 754.99C2294.14 758.448 2238.4 762.889 2220.11 765.071L2186.44 768.869L2184 733.869C2181.57 699.228 2181.56 699.049 2187.12 697.758C2197.98 694.833 2269 683.732 2311.61 677.864C2369.84 670.183 2374.23 669.695 2413.6 666.58L2447.58 663.842L2442.6 669.962ZM1585.15 756.111L1585.89 777.342L1436.92 844.4L1287.93 911.279L1285.68 903.681C1284.65 899.425 1283.16 892.314 1282.85 887.827L1282.04 879.767L1330.35 856.907C1356.77 844.417 1423.83 811.949 1479.46 784.789C1535.1 757.629 1581.48 735.265 1582.45 735.197C1583.43 735.128 1584.59 744.607 1585.15 756.111ZM1239.71 763.147C1239.98 763.489 1244.53 786.437 1250.42 814.343C1257.17 847.598 1259.92 865.803 1258.55 867.342C1255.8 870.24 1108.47 936.102 1072.35 950.533C1058.24 956.209 1045.99 960.313 1044.96 959.664C1043.43 958.869 1018.88 839.922 1017.86 828.811C1017.56 824.504 1019.48 823.828 1062.88 811.593C1087.71 804.624 1135.68 790.987 1169.42 781.231C1224.13 765.499 1238.63 761.779 1239.71 763.147ZM2153.99 726.77L2155.56 749.206L2145.53 746.301C2113.14 736.663 2069.08 739.565 2030.97 753.595C1997.67 766.025 1957.89 791.355 1945.77 807.894C1941.75 813.767 1939.36 814.656 1917.6 819.966C1887.61 827.114 1847.54 837.674 1805.59 849.627C1787.51 854.68 1772.32 858.99 1771.58 859.041C1771.1 859.075 1769.33 854.87 1768.23 849.716C1766.9 844.759 1762.51 834.785 1758.58 827.845C1754.89 820.709 1752 814.598 1752.71 814.188C1753.41 813.598 1775.73 805.903 1802.66 797.166C1901.44 764.642 2002.02 736.862 2098.12 715.348C2123.3 709.798 2145.83 704.976 2148.28 704.804C2151.94 704.368 2152.58 706.488 2153.99 726.77ZM1649.41 785.523C1665.21 790.009 1681.44 796.99 1689.44 802.382C1695.36 806.296 1695.39 806.655 1691.06 808.04C1688.66 808.93 1670.47 815.974 1651.08 823.463C1626.42 832.945 1615.12 836.621 1614.27 835.057C1613.45 833.852 1612.77 824.16 1612.25 813.194L1611.62 793.579L1623.51 787.876C1630.17 784.705 1635.88 781.961 1636.37 781.926C1636.62 781.909 1642.63 783.473 1649.41 785.523ZM1589.97 825.034L1590.75 846.803L1507.07 880.615C1461.16 899.159 1395.14 925.422 1360.7 939.195L1298.01 963.962L1296.14 954.715C1294.81 949.757 1293.57 942.629 1292.82 938.894L1291.86 932.288L1340.79 911.188C1367.77 899.741 1433.85 870.768 1487.5 846.993C1541.42 823.381 1586.26 803.65 1587.24 803.581C1588.2 803.333 1589.38 813.171 1589.97 825.034ZM1727.63 835.242C1734.44 844.686 1744.77 865.787 1743.15 867.343C1741.75 868.343 1630.98 905.133 1623.71 906.723L1618.15 908.014L1617.34 885.886L1616.52 863.578L1665.64 845.351C1692.71 835.16 1716.22 826.841 1717.94 826.721C1719.65 826.602 1724.1 830.439 1727.63 835.242ZM1267.11 898.307C1271.74 918.726 1272.41 917.777 1250.42 926.89C1155.35 966.55 1056.21 1004.51 1053.14 1002.74C1052.37 1002.25 1051.24 996.74 1050.57 990.655L1049.3 979.561L1091.17 962.924C1114.13 953.742 1161.39 933.481 1196.21 918.058C1231.01 902.456 1260.6 889.564 1262.07 889.461C1263.52 889.179 1265.78 893.35 1267.11 898.307ZM1927.03 859.888C1928.05 874.426 1935.45 885.272 1950.12 894.706C1955.8 898.637 1959.71 901.791 1958.49 901.876C1943.57 902.921 1832.06 925.693 1787.83 936.544C1774.04 939.853 1762.18 942.487 1761.67 942.162C1761.15 941.837 1763.06 933.948 1765.6 924.572C1768.4 915.358 1770.99 903.272 1771.35 897.836L1772.37 887.844L1784.91 884.262C1798.39 880.252 1914.82 850.462 1924.52 848.521C1925.25 848.469 1926.33 853.444 1927.03 859.888ZM1594.87 895.034L1595.65 916.803L1469.68 961.15C1297.38 1021.72 1300.99 1020.57 1302.46 1017.04C1303.08 1015.37 1303.28 1007.6 1302.71 999.526L1301.68 984.808L1337.15 971.685C1356.56 964.375 1421.44 939.454 1481.27 915.969C1541.1 892.663 1591.15 873.47 1592.12 873.401C1593.1 873.333 1594.27 882.991 1594.87 895.034ZM1744.33 915.779C1743.26 921.625 1740.54 931.916 1738.28 938.207C1734.8 948.19 1733.22 950.285 1727.66 951.576C1724.04 952.551 1700.15 959.092 1674.58 966.111C1648.78 973.328 1626.82 979.193 1625.59 979.279C1621.92 979.536 1619.94 937.108 1623.46 934.698C1624.86 933.697 1652.73 924.353 1685.22 914.324L1744.16 895.77L1745.22 900.386C1745.88 902.864 1745.38 909.753 1744.33 915.779ZM610.298 977.632C610.336 978.171 613.505 991.837 617.571 1007.79C621.405 1023.93 624.304 1037.25 623.828 1037.47C623.595 1037.67 615.942 1040.73 607.078 1044.05C576.194 1055.95 549.984 1074.92 538.297 1094.14C531.454 1105.26 533.373 1104.58 491.234 1110.23C476.861 1112.14 472.2 1112.29 472.075 1110.49C471.761 1106.01 490.893 1077.25 503.678 1063.19C521.92 1042.8 541.147 1025.94 576.177 999.499C604.194 978.24 610.084 974.581 610.298 977.632ZM1278.78 956.11C1280.82 967.691 1280.8 970.939 1278.13 971.486C1276.42 971.606 1267.39 972.598 1257.86 973.445C1237.58 975.225 1224.67 980.457 1208.82 992.929C1197.41 1002.02 1176.59 1010.15 1098.92 1035.07L1060.68 1047.3L1058.15 1035.76C1056.72 1029.36 1056.55 1023.42 1057.73 1022.62C1058.65 1021.83 1073.75 1016.27 1090.8 1010.39C1127.04 997.749 1217.31 963.116 1250.01 949.104C1262.43 943.906 1273.46 939.888 1274.25 940.554C1275.26 941.024 1277.23 948.101 1278.78 956.11ZM1599.78 965.213L1600.56 986.982L1559.64 999.405C1537.23 1006.02 1474.87 1024.82 1421.17 1041.02C1182.07 1113.12 1062.43 1142.59 895.94 1170.12C830.796 1180.81 835.959 1180.81 839.082 1169.22C840.688 1164.06 843.04 1159.03 844.458 1158.21C845.876 1157.39 853.875 1155.74 862.143 1154.44C870.179 1153.34 897.833 1147.98 923.052 1142.97C961.603 1135.22 970.605 1133.87 979.037 1134.9C993.429 1136.78 1009.41 1133.32 1025.29 1124.81C1035.72 1119.21 1049.91 1114.79 1086.14 1105.4C1112.22 1098.71 1153.48 1087.52 1178.06 1080.39C1202.64 1073.26 1229.71 1066.5 1238.23 1065.36C1249.68 1063.84 1256.66 1061.73 1265.66 1056.77C1272.53 1053.04 1310.9 1039.18 1352.46 1025.26C1393.3 1011.59 1464.16 987.689 1509.79 972.231C1555.41 956.594 1594.1 943.786 1595.81 943.666C1598.25 943.316 1599.09 948.307 1599.78 965.213ZM1033.32 997.093C1034.71 1002.95 1035.1 1008.51 1034.44 1009.64C1031.06 1014.02 829.271 1074.68 813.857 1075.76C811.655 1075.91 806.046 1073.06 801.365 1069.42L793.291 1062.95L807.024 1058.92C872.619 1040.62 945.974 1017.27 997.742 998.139C1014.29 992.112 1028.44 987.153 1029.41 986.905C1030.13 986.674 1031.94 991.417 1033.32 997.093ZM153.288 1087.35C158.062 1088.82 165.766 1093.51 170.24 1097.7C178.389 1105.25 190.261 1127.33 187.475 1129.69C186.791 1130.45 177.237 1130.94 166.177 1131C146.76 1131.09 146.258 1130.95 142.675 1125.42C134.174 1112.85 112.229 1108.44 96.5577 1116.39C88.2455 1120.58 85.4788 1119.69 87.2413 1113.25C90.3396 1101.31 115.138 1086.77 134.712 1085.4C140.094 1085.02 148.513 1085.88 153.288 1087.35ZM1040.63 1034.82C1044.04 1044.86 1043.81 1045.06 1033.59 1043.07C1007.68 1038.21 978.185 1048.93 958.795 1070.49C950.345 1079.73 952.264 1079.06 891.336 1093.78C828.476 1109 834.593 1108.58 828.017 1098.93C824.755 1094.47 822.521 1090.66 822.753 1090.47C823.23 1090.25 842.063 1085.33 864.528 1079.61C904.616 1069.23 993.774 1043.33 1019.95 1034.46C1037.73 1028.53 1038.47 1028.48 1040.63 1034.82ZM1192.02 1051.46C1193.42 1053.89 1192.27 1055.05 1187.25 1057.03C1176.45 1060.85 1065.07 1092.45 1061.16 1092.72C1059.2 1092.86 1058.39 1091.83 1059.46 1089.59C1060.33 1087.91 1061.87 1081.85 1062.7 1076.2L1064.69 1065.96L1125.05 1046.59L1185.41 1027.21L1187.63 1037.88C1189.02 1043.73 1190.93 1049.91 1192.02 1051.46ZM710.482 1095.25L720.739 1097.78L698.174 1102.07C686.053 1104.54 675.815 1105.8 675.777 1105.26C675.727 1104.54 674.767 1101.36 673.562 1098.2L671.68 1092.38L685.958 1092.64C693.825 1092.63 704.741 1094.03 710.482 1095.25ZM642.145 1105.99L643.82 1112.36L624.153 1115.9C613.463 1117.73 604.203 1118.92 603.688 1118.6C602.402 1117.79 619.183 1108.14 630.149 1103.22C635.394 1100.87 639.697 1099.13 639.955 1099.29C640.212 1099.45 641.159 1102.45 642.145 1105.99ZM179.91 1141.04C185.343 1141.38 189.101 1142.38 189.214 1143.99C189.427 1147.04 188.693 1147.1 163.06 1146.18C148.034 1145.79 142.564 1144.91 142.426 1142.94C142.25 1140.43 150.568 1139.84 179.91 1141.04ZM525.344 1123.36C524.836 1126.64 524.071 1129.76 523.594 1129.98C523.375 1130.35 509.724 1132.03 493.613 1133.7L464.328 1136.83L465.922 1131.49C467.27 1126.16 467.515 1126.14 495.269 1122.22C510.607 1120.06 523.744 1118.06 524.71 1117.81C525.689 1117.74 526.109 1120.24 525.344 1123.36ZM335.777 1137.35L382.841 1135.31L383.155 1139.8L383.456 1144.11L351.085 1145.29C306.197 1146.81 251.435 1147.76 241.818 1147.35C235.896 1147.04 234.108 1146.08 235.18 1143.84C236.24 1141.42 240.13 1140.79 262.47 1140.31C276.699 1139.86 309.804 1138.62 335.777 1137.35ZM755.076 1114.14C759.769 1117.96 763.188 1121.15 762.724 1121.54C761.086 1122.74 685.033 1135.63 683.759 1135C683.232 1134.5 682.259 1131.14 681.494 1127.22L680.527 1120.44L710.834 1114.35C727.566 1111.01 742.365 1108.17 744.065 1107.88C745.533 1107.77 750.64 1110.48 755.076 1114.14ZM163.982 1155.86C177.772 1156.16 186.216 1157.37 187.05 1158.75C187.885 1160.14 187.985 1161.57 187.521 1161.97C186.605 1162.93 155.526 1161.5 128.825 1159.4C117.947 1158.54 116.197 1158.12 120.023 1156.59C122.652 1155.5 128.756 1154.9 133.43 1154.93C138.116 1155.14 151.906 1155.44 163.982 1155.86ZM946.996 1109.19C947.888 1114.9 948.484 1119.91 948.252 1120.1C947.581 1121.05 861.295 1138.81 850.335 1140.3L841.81 1141.44L840.422 1132.16C839.086 1123.59 839.512 1122.66 844.587 1121.4C847.743 1120.82 868.791 1115.92 891.293 1110.74C914.041 1105.54 932.899 1100.98 933.363 1100.58C933.828 1100.19 936.739 1099.62 939.919 1099.4C944.813 1099.06 945.622 1100.09 946.996 1109.19ZM648.012 1130.11C648.137 1131.9 649.098 1135.08 649.97 1137C651.444 1140.51 650.491 1140.94 631.237 1143.37C620.033 1144.87 603.458 1146.93 594.456 1148.28L577.649 1150.54L582.272 1142.82L586.663 1135.3L606.845 1132.09C640.408 1126.85 647.761 1126.52 648.012 1130.11ZM273.757 1157.56C294.655 1157.54 328.055 1157 347.924 1156.34C382.999 1155.14 383.733 1155.09 385.245 1159.13C386.513 1163.19 386.036 1163.41 372.824 1164.33C358.144 1165.36 299.649 1165.67 256.581 1165.07C231.963 1164.63 226.223 1163.41 231.342 1159.26C233.186 1157.51 228.782 1157.82 273.757 1157.56ZM524.449 1149.21L525.867 1155.43L494.55 1157.62C466.413 1159.59 463.207 1159.45 463.006 1156.58C462.566 1150.3 466.161 1148.96 489.354 1146.62C502.064 1145.55 514.994 1144.1 517.673 1143.74C522.052 1143.07 523.351 1144.06 524.449 1149.21ZM779.243 1143.29C781 1147.32 781.985 1150.85 781.289 1151.44C780.141 1152.61 740.499 1158.81 707.864 1163.26L690.568 1165.55L688.572 1158.11C687.537 1153.86 686.809 1150.48 687.041 1150.28C687.261 1149.91 706.219 1146.78 728.823 1143.03C751.426 1139.28 770.617 1135.96 771.068 1135.39C773.157 1133.62 776.332 1136.82 779.243 1143.29ZM263.953 1175.56C294.493 1176.31 378.596 1176.55 387.649 1175.92C388.872 1175.84 390.736 1177.87 391.646 1180.33L393.208 1185.09L372.568 1185.27C338.923 1185.82 235.446 1182.78 224.505 1181.02C221.519 1180.51 222.353 1174.86 225.534 1174.64C226.268 1174.59 243.752 1174.99 263.953 1175.56ZM655.837 1161.12C656.872 1165.38 657.613 1168.94 657.381 1169.13C657.149 1169.33 639.094 1171.31 617.124 1173.57L577.575 1177.6L577.048 1170.06L576.533 1162.7L595.604 1161.19C611.74 1159.88 647.568 1155.39 652.399 1154.15C653.365 1153.9 654.814 1157.05 655.837 1161.12ZM532.763 1173.16C534.457 1176.29 535.881 1179.08 535.894 1179.26C535.919 1179.62 521.509 1180.98 504.137 1182.2L472.33 1184.43L469.557 1179.93C467.913 1177.52 466.734 1174.72 466.671 1173.82C466.608 1172.92 480.259 1171.24 498.12 1170L529.682 1167.79L532.763 1173.16ZM257.806 1193.12C290.868 1194.78 347.042 1196.44 384.934 1196.85C396.741 1196.93 399.25 1197.66 401.973 1201.43C403.617 1203.84 404.759 1206.11 404.307 1206.68C401.509 1208.86 214.958 1199.19 210.842 1196.59C208.527 1195.13 212.473 1191.79 216.877 1191.48C219.079 1191.32 237.567 1192.01 257.806 1193.12ZM784.942 1175.54C784.265 1179.91 783.085 1184.15 782.157 1184.93C780.545 1186.49 729.867 1193.1 706.404 1195.1C697.596 1195.72 697.339 1195.56 695.833 1188.09C694.81 1184.01 694.314 1180.44 694.778 1180.04C695.217 1179.29 760.964 1170.18 775.619 1168.8L785.882 1167.9L784.942 1175.54ZM517.494 1193.89L545.876 1191.9L552.997 1198.8L560.105 1205.52L539.722 1205.86C483.737 1206.89 483.737 1206.89 481.052 1203.66C476.233 1198.04 477.205 1194.36 483.655 1195.18C486.628 1195.51 501.836 1194.99 517.494 1193.89ZM661.717 1185.42C661.78 1186.32 662.74 1189.5 663.687 1192.5L665.789 1197.94L630.312 1200.43L595.08 1202.89L590.481 1196.9C588.028 1193.46 585.845 1190.37 585.82 1190.01C585.782 1189.47 602.884 1187.92 623.68 1186.46C644.477 1185.01 661.654 1184.53 661.717 1185.42ZM543.537 1218.22C576.656 1217.17 576.656 1217.17 599.486 1223.69C623.821 1230.64 645.359 1232.74 645.019 1227.89C644.919 1226.46 638.306 1223.31 630.521 1220.97L615.966 1216.76L641.374 1214.44C655.307 1213.29 667.051 1212.46 667.81 1212.77C669.881 1214.25 680.091 1258.27 678.466 1259.64C674.507 1262.81 623.604 1266.19 604.306 1264.47C564.732 1261.11 524.33 1245.9 502.565 1226.5L493.644 1218.47L502.038 1218.96C506.724 1219.17 525.394 1218.95 543.537 1218.22ZM773.689 1204.46C773.865 1206.98 761.532 1220.46 752.919 1227.38C744.293 1234.12 718.246 1248.38 713.842 1248.69C712.129 1248.81 709.462 1242.32 707.109 1233.29C701.217 1208.81 700.583 1210.3 716.913 1208.25C746.186 1204.94 773.588 1203.03 773.689 1204.46Z" fill="#1E1E1E"/>
<path d="M226.141 1063.85C221.034 1068.18 220.658 1069.83 222.334 1076.2C225.239 1086.1 233.213 1091.13 244.468 1090.35C259.637 1089.28 269.624 1077.4 262.829 1068.14C259.284 1063.16 245.632 1057.8 237.803 1058.35C234.622 1058.57 229.635 1061.08 226.141 1063.85Z" fill="#1E1E1E"/>
</g>
<defs>
<clipPath id="clip0_90_2">
<rect width="3139.41" height="1455.6" fill="white" transform="translate(-81 198.666) rotate(-4.00248)"/>
</clipPath>
</defs>
</svg>
