<svg width="185" height="185" viewBox="0 0 185 185" fill="none" xmlns="http://www.w3.org/2000/svg">
<g clip-path="url(#clip0_10_367)">
<path d="M39.3949 22.0557C30.6546 27.1309 27.6727 38.3721 32.7488 47.1126L33.3058 48.0718L29.8249 50.0934C28.5904 50.8101 28.1711 52.3921 28.888 53.6258C29.6048 54.8601 31.1866 55.2796 32.4204 54.5627L38.1359 51.2433L42.6979 48.594C46.4202 46.4324 47.6902 41.6454 45.5284 37.9228C45.3238 37.5708 45.2688 37.1598 45.3731 36.7665C45.4776 36.3729 45.7289 36.0434 46.0811 35.8389C46.5831 35.5473 47.0576 35.6268 47.2955 35.6999C47.5334 35.7731 47.9702 35.9741 48.2216 36.4972L69.5773 80.9602L65.0224 83.6054C63.7881 84.3222 63.3685 85.904 64.0855 87.1377C64.8022 88.372 66.3838 88.7915 67.6178 88.0746L71.8216 85.6334L74.3048 90.8034L72.187 92.0333L72.0095 91.7277C71.2927 90.4934 69.7112 90.0739 68.4772 90.7907C67.2429 91.5075 66.8234 93.0891 67.5402 94.3231L70.7216 99.8013C71.4384 101.036 73.0199 101.455 74.2539 100.738C74.8709 100.38 75.2846 99.8053 75.4541 99.1661C75.6236 98.527 75.5494 97.8229 75.1909 97.2059L74.7824 96.5026L76.5495 95.4764L100.741 145.844C105.236 155.202 114.068 161.568 124.367 162.874C134.666 164.18 144.807 160.219 151.495 152.279C154.449 148.772 156.496 144.738 157.62 140.501C159.858 132.062 158.436 122.814 153.235 115.308L152.476 114.212C147.817 107.489 147.518 98.5861 151.583 91.5817C154.861 91.6714 157.9 89.5136 158.776 86.2103L158.928 85.636C159.951 81.7794 157.646 77.8097 153.79 76.7867L112.824 65.9209C108.967 64.8979 104.997 67.203 103.974 71.0599L103.822 71.6342C102.949 74.9236 104.503 78.2885 107.37 79.844C107.909 95.3822 112.772 110.364 121.488 123.276C122.276 124.443 123.105 125.606 123.951 126.73C124.204 127.066 124.178 127.418 124.14 127.598C124.1 127.785 123.976 128.133 123.587 128.35C123.059 128.644 122.383 128.459 122.08 127.936L86.1532 66.0715L90.979 63.269C91.596 62.9107 92.0097 62.3361 92.1792 61.6969C92.3487 61.0578 92.2745 60.3537 91.9159 59.7367C91.1991 58.5024 89.6173 58.0828 88.3836 58.7997L83.5578 61.6022L81.2722 57.6664L84.2868 55.9157L84.4666 56.2253C85.1834 57.4596 86.7652 57.8792 87.9989 57.1622C88.6159 56.8039 89.0296 56.2293 89.1991 55.5901C89.3686 54.951 89.2944 54.2469 88.9358 53.6299L85.7545 48.1516C85.0377 46.9173 83.4559 46.4978 82.2221 47.2147C80.9878 47.9315 80.5684 49.5131 81.2852 50.7471L81.691 51.4457L78.6763 53.1964L64.4518 28.7021C59.3761 19.9611 48.1357 16.9797 39.3949 22.0557ZM110.286 75.4869C109.184 75.1946 108.526 74.0606 108.818 72.9584L108.97 72.3842C109.262 71.2823 110.397 70.6235 111.499 70.9158L152.465 81.7816C153.566 82.0739 154.225 83.2079 153.933 84.31L153.78 84.8843C153.488 85.9861 152.354 86.6449 151.252 86.3527L110.286 75.4869ZM74.2076 55.792L72.0715 57.0325C70.8373 57.749 70.4178 59.3306 71.1346 60.5649C71.8514 61.7992 73.4332 62.2187 74.6669 61.5018L76.803 60.2613L79.0887 64.1971L76.9525 65.4376C75.7182 66.1544 75.2987 67.7362 76.0156 68.9699C76.7324 70.2042 78.3142 70.6238 79.548 69.9068L81.6841 68.6664L117.611 130.531C119.321 133.476 123.132 134.522 126.106 132.863C127.694 131.976 128.82 130.45 129.197 128.667C129.571 126.9 129.164 125.062 128.082 123.623C127.288 122.568 126.511 121.479 125.773 120.384C117.936 108.775 113.42 95.3803 112.617 81.4528L146.351 90.4002C142.11 98.8792 142.739 109.234 148.228 117.155L148.987 118.251C155.475 127.614 154.881 140.238 147.543 148.949C141.99 155.542 133.569 158.831 125.018 157.746C116.467 156.662 109.133 151.376 105.401 143.606L81.0346 92.8739L84.5179 90.8511C85.1348 90.4928 85.5485 89.9181 85.718 89.279C85.8876 88.6399 85.8134 87.9358 85.4548 87.3187C84.738 86.0844 83.1564 85.6649 81.9224 86.3818L78.7903 88.2007L76.3068 83.0307L79.0509 81.4371C79.6679 81.0788 80.0816 80.5041 80.2511 79.865C80.4206 79.2258 80.3464 78.5218 79.9878 77.9047C79.271 76.6704 77.6895 76.2509 76.4555 76.9678L74.0625 78.3575L52.8816 34.2603C52.0761 32.5833 50.5946 31.3077 48.8165 30.7609C47.0381 30.2138 45.0958 30.4357 43.4865 31.3698C41.9405 32.2676 40.8367 33.714 40.3783 35.4423C39.9199 37.1705 40.1621 38.9736 41.0597 40.5193C41.4136 41.1287 41.509 41.839 41.3282 42.5203C41.1475 43.2016 40.7127 43.7713 40.1033 44.1252L37.7759 45.4766L37.2189 44.5174C33.5746 38.2411 35.7146 30.1704 41.9911 26.5255C45.0315 24.7601 48.5773 24.2839 51.9755 25.1852C55.3736 26.0866 58.2173 28.2575 59.9831 31.2977L74.2076 55.792Z" fill="#FFD132"/>
<path d="M102.376 114.897C102.741 113.523 101.922 112.113 100.548 111.748C99.173 111.384 97.7631 112.203 97.3985 113.577C97.034 114.952 97.8527 116.362 99.2273 116.726C100.602 117.091 102.012 116.272 102.376 114.897Z" fill="#FFD132"/>
<path d="M97.9879 107.317C98.3525 105.942 97.5338 104.532 96.1592 104.168C94.7847 103.803 93.3748 104.622 93.0102 105.996C92.6457 107.371 93.4644 108.781 94.8389 109.145C96.2135 109.51 97.6233 108.691 97.9879 107.317Z" fill="#FFD132"/>
<path d="M93.3008 99.25C93.6654 97.8755 92.8467 96.4656 91.4721 96.101C90.0976 95.7364 88.6877 96.5552 88.3231 97.9297C87.9586 99.3043 88.7773 100.714 90.1518 101.079C91.5264 101.443 92.9362 100.625 93.3008 99.25Z" fill="#FFD132"/>
</g>
<defs>
<clipPath id="clip0_10_367">
<rect width="150" height="150" fill="white" transform="translate(0.982513 145.969) rotate(-75.1449)"/>
</clipPath>
</defs>
</svg>
