<svg width="175" height="175" viewBox="0 0 175 175" fill="none" xmlns="http://www.w3.org/2000/svg">
<g clip-path="url(#clip0_10_354)">
<path d="M128.772 9.03101C120.49 3.23873 109.037 5.26511 103.245 13.5485L102.61 14.4574L99.3108 12.1508C98.1411 11.3326 96.5296 11.6181 95.7123 12.7877C94.8943 13.9574 95.1795 15.5689 96.3491 16.3863L101.766 20.1737L106.089 23.197C109.617 25.6637 114.493 24.8009 116.96 21.2731C117.194 20.9393 117.543 20.7165 117.944 20.6456C118.345 20.5746 118.75 20.664 119.083 20.8974C119.559 21.23 119.687 21.6939 119.721 21.9405C119.754 22.1871 119.756 22.6679 119.387 23.1161L88.0426 61.2022L83.7261 58.1837C82.5564 57.3657 80.9449 57.6509 80.1275 58.8205C79.3095 59.9903 79.5947 61.6014 80.7643 62.4191L84.7482 65.2049L81.1036 69.6335L79.0965 68.23L79.2991 67.9404C80.117 66.7707 79.8319 65.1595 78.6622 64.3418C77.4925 63.5239 75.8813 63.809 75.0636 64.9787L71.4333 70.1702C70.6153 71.3399 70.9005 72.9511 72.0701 73.7688C72.6548 74.1777 73.3502 74.3111 74.0014 74.1958C74.6525 74.0806 75.2599 73.7169 75.6687 73.132L76.1348 72.4654L77.8094 73.6365L42.3025 116.78C35.7055 124.796 33.6479 135.487 36.798 145.379C39.9484 155.271 47.8094 162.803 57.8266 165.528C62.2516 166.732 66.772 166.891 71.0889 166.127C79.6858 164.605 87.4765 159.423 92.0966 151.546L92.7711 150.396C96.9085 143.34 104.858 139.321 112.923 140.061C114.221 143.072 117.458 144.921 120.823 144.325L121.408 144.222C125.337 143.526 127.968 139.764 127.273 135.836L119.887 94.1014C119.192 90.1725 115.43 87.5417 111.501 88.237L110.916 88.3406C107.565 88.9336 105.166 91.7593 104.962 95.0147C91.0937 102.043 79.55 112.76 71.5061 126.102C70.7791 127.308 70.0734 128.548 69.4094 129.79C69.2111 130.16 68.8809 130.285 68.7019 130.326C68.5154 130.368 68.1477 130.402 67.7872 130.14C67.2981 129.786 67.1818 129.095 67.5282 128.599L108.525 69.9719L113.098 73.1698C113.683 73.5787 114.378 73.7121 115.03 73.5969C115.681 73.4816 116.288 73.118 116.697 72.533C117.515 71.3633 117.23 69.7518 116.06 68.9344L111.487 65.7364L114.095 62.0066L116.952 64.0043L116.747 64.2977C115.929 65.4674 116.214 67.0789 117.384 67.8963C117.968 68.3051 118.664 68.4385 119.315 68.3233C119.966 68.2081 120.573 67.8444 120.982 67.2594L124.613 62.0679C125.43 60.8982 125.145 59.2867 123.976 58.4693C122.806 57.6513 121.195 57.9365 120.377 59.1061L119.914 59.7682L117.057 57.7705L133.289 34.5578C139.082 26.2746 137.056 14.8234 128.772 9.03101ZM110.142 95.826C109.943 94.7035 110.694 93.6286 111.817 93.4299L112.402 93.3264C113.525 93.1277 114.6 93.8791 114.798 95.0019L122.184 136.736C122.383 137.858 121.631 138.933 120.508 139.132L119.923 139.235C118.801 139.434 117.726 138.682 117.527 137.56L110.142 95.826ZM112.822 54.8093L110.798 53.3937C109.628 52.5757 108.017 52.8609 107.199 54.0306C106.381 55.2003 106.666 56.8118 107.836 57.6292L109.86 59.0447L107.252 62.7746L105.228 61.359C104.058 60.5411 102.446 60.8262 101.629 61.9959C100.811 63.1656 101.096 64.7771 102.266 65.5944L104.29 67.01L63.2931 125.638C61.3414 128.429 61.9968 132.326 64.7537 134.325C66.2265 135.393 68.0847 135.772 69.8609 135.364C71.6208 134.959 73.1174 133.816 73.9671 132.229C74.5898 131.065 75.2511 129.902 75.9332 128.771C83.1654 116.776 93.415 107.042 105.711 100.452L111.793 134.817C102.317 134.539 93.1882 139.468 88.313 147.781L87.6385 148.931C81.876 158.757 70.1749 163.531 59.1838 160.542C50.8664 158.279 44.339 152.025 41.7234 143.812C39.1078 135.598 40.8164 126.721 46.2938 120.066L82.0579 76.6096L85.3589 78.9179C85.9436 79.3268 86.639 79.4602 87.2901 79.3449C87.9412 79.2297 88.5487 78.866 88.9575 78.2811C89.7754 77.1113 89.4903 75.5002 88.3206 74.6825L85.3524 72.6068L88.9969 68.178L91.5974 69.9965C92.1821 70.4053 92.8775 70.5387 93.5286 70.4235C94.1798 70.3083 94.7872 69.9446 95.196 69.3596C96.014 68.1899 95.7288 66.5787 94.5592 65.7611L92.2914 64.1752L123.378 26.4017C124.56 24.9652 125.093 23.0845 124.841 21.2414C124.589 19.3979 123.57 17.7295 122.045 16.6628C120.58 15.6383 118.804 15.2458 117.043 15.5574C115.282 15.8689 113.749 16.8476 112.724 18.3123C112.32 18.8899 111.716 19.2753 111.022 19.3981C110.328 19.521 109.628 19.3663 109.051 18.9625L106.845 17.42L107.481 16.5111C111.64 10.5636 119.862 9.108 125.81 13.2674C128.691 15.2823 130.616 18.2983 131.228 21.7602C131.841 25.222 131.069 28.7154 129.054 31.5966L112.822 54.8093Z" fill="#FFECAB"/>
<path d="M71.0626 105.238C72.4629 104.991 73.3972 103.655 73.1494 102.254C72.9016 100.854 71.5655 99.9196 70.1652 100.167C68.7648 100.415 67.8305 101.751 68.0784 103.152C68.3262 104.552 69.6623 105.486 71.0626 105.238Z" fill="#FFECAB"/>
<path d="M76.0923 98.067C77.4926 97.8192 78.4269 96.4831 78.1791 95.0828C77.9313 93.6825 76.5952 92.7482 75.1949 92.996C73.7945 93.2438 72.8603 94.5799 73.1081 95.9802C73.3559 97.3805 74.692 98.3148 76.0923 98.067Z" fill="#FFECAB"/>
<path d="M81.4368 90.4202C82.8372 90.1723 83.7715 88.8363 83.5236 87.4359C83.2758 86.0356 81.9397 85.1013 80.5394 85.3491C79.1391 85.597 78.2048 86.933 78.4526 88.3334C78.7004 89.7337 80.0365 90.668 81.4368 90.4202Z" fill="#FFECAB"/>
</g>
<defs>
<clipPath id="clip0_10_354">
<rect width="150" height="150" fill="white" transform="translate(0.201416 26.3408) rotate(-10.0358)"/>
</clipPath>
</defs>
</svg>
