<svg xmlns="http://www.w3.org/2000/svg" xmlns:xlink="http://www.w3.org/1999/xlink" version="1.1" width="1000" height="1000" viewBox="0 0 1000 1000" xml:space="preserve">
<desc>Created with Fabric.js 3.5.0</desc>
<defs>
</defs>
<rect x="0" y="0" width="100%" height="100%" fill="#ffffff"/>
<g transform="matrix(0 -0.5933 0.5933 0 499.9889 500.0343)" id="327448">
<path style="stroke: none; stroke-width: 1; stroke-dasharray: none; stroke-linecap: butt; stroke-dashoffset: 0; stroke-linejoin: miter; stroke-miterlimit: 4; is-custom-font: none; font-file-url: none; fill: rgb(42,42,42); fill-rule: nonzero; opacity: 1;" vector-effect="non-scaling-stroke" transform=" translate(-843.3138, -271.5538)" d="M 119.232 0.940735 C 109.474 2.88062 106.667 5.41089 104.662 14.6886 C 102.389 24.7254 99.7158 30.545 93.0322 38.9793 C 87.819 45.7267 84.8782 48.1726 74.5855 54.667 C 63.8917 61.4988 60.8173 62.9326 48.5195 66.6437 C 40.7665 68.921 30.0727 71.5356 24.7259 72.2946 C 3.73938 75.4153 0.932267 80.0542 13.7648 90.4283 C 25.5279 99.9591 29.6717 111.683 25.1269 122.732 C 22.4534 129.142 19.379 132.768 11.3587 139.178 C 7.61586 142.13 3.47203 146.179 2.26899 148.372 C -1.07281 153.854 1.06594 158.156 11.8934 167.18 C 23.7902 177.133 26.3299 181.434 26.3299 192.061 C 26.3299 202.773 23.7902 206.906 11.225 217.617 C -3.07789 229.594 -2.94422 233.474 12.8291 246.294 C 32.4788 262.403 31.8105 279.272 10.6903 296.056 C -2.94422 306.936 -2.81055 311.575 11.626 323.552 C 23.1218 333.082 27.132 339.577 27.132 348.517 C 27.132 357.457 23.1218 363.952 11.626 373.482 C -2.81055 385.459 -2.94422 390.098 10.6903 400.978 C 31.1421 417.172 32.4788 434.209 14.5668 449.56 C 11.3587 452.259 8.01688 455.295 7.21485 456.307 C 4.94242 458.922 5.47711 462.801 8.15055 464.32 C 11.3587 466.175 20.3147 468.452 21.7851 467.862 C 22.5871 467.525 23.1218 467.778 23.1218 468.199 C 23.1218 468.705 24.9932 469.127 27.3993 469.127 C 31.2758 469.127 39.9645 471.236 51.8613 475.2 C 68.7039 480.766 84.7446 491.225 93.2996 502.358 C 99.7158 510.539 102.389 516.359 104.662 526.311 C 105.33 529.685 106.934 533.565 108.003 534.914 C 110.41 537.866 116.558 540.059 122.841 540.228 C 125.514 540.312 127.386 540.818 127.386 541.409 C 127.386 542.252 273.623 542.505 853.893 542.505 H 1580.4 V 533.396 C 1580.4 515.347 1589.76 500.671 1609.27 488.273 C 1627.45 476.718 1654.32 469.211 1677.71 469.127 H 1686 V 464.994 C 1686 461.114 1685.6 460.693 1681.32 459.006 C 1674.37 456.307 1666.08 449.981 1661.4 443.824 C 1657.53 438.679 1657.26 437.752 1657.26 428.558 C 1657.26 419.027 1657.39 418.774 1662.34 412.449 C 1665.82 407.81 1669.56 404.689 1675.44 401.316 C 1679.85 398.701 1684 396.592 1684.8 396.592 C 1685.47 396.592 1686 393.387 1686 389.423 C 1686 385.459 1685.47 382.254 1684.8 382.254 C 1684 382.254 1679.85 380.145 1675.44 377.531 C 1669.56 374.157 1665.82 371.036 1662.34 366.398 C 1657.39 360.072 1657.26 359.819 1657.26 350.204 C 1657.26 341.01 1657.53 340.251 1661.54 334.938 C 1666.48 328.696 1674.5 322.455 1681.32 319.84 L 1686 317.985 V 311.491 V 304.912 L 1679.99 301.875 C 1671.83 297.911 1666.35 293.526 1661.54 286.947 C 1658.2 282.477 1657.26 280.115 1656.86 274.127 C 1655.79 261.222 1664.08 249.752 1679.32 242.667 L 1686 239.546 V 233.052 V 226.473 L 1679.85 223.69 C 1671.03 219.726 1662.47 211.966 1659.13 204.966 C 1656.86 200.327 1656.33 197.544 1656.86 191.64 C 1657.39 185.145 1658.06 183.374 1662.34 177.976 C 1667.02 171.903 1673.17 167.265 1681.59 163.132 C 1685.87 161.108 1686 160.939 1686 154.529 V 147.95 L 1681.32 146.095 C 1674.5 143.48 1666.48 137.239 1661.54 130.997 C 1657.53 125.684 1657.26 124.924 1657.26 115.731 C 1657.26 106.116 1657.39 105.863 1662.34 99.5374 C 1665.82 94.8985 1669.56 91.7778 1675.44 88.4041 C 1679.85 85.7895 1684 83.6809 1684.8 83.6809 C 1685.47 83.6809 1686 81.9941 1686 79.9698 V 76.2588 L 1675.71 75.6684 C 1637.34 73.3911 1605.26 59.6432 1589.76 38.5576 C 1583.07 29.6172 1580.4 21.689 1580.4 10.8088 V 1.95288 L 1559.41 1.44678 C 1527.47 0.687683 123.242 0.265991 119.232 0.940735 Z" stroke-linecap="round"/>
</g>
</svg>